<svg version="1.1" xmlns="http://www.w3.org/2000/svg" xmlns:xlink="http://www.w3.org/1999/xlink" width="48" height="48"><defs><linearGradient x1="0" y1="0" x2="0" y2="0" gradientUnits="userSpaceOnUse" id="color-1"><stop offset="0" stop-color="#000000" stop-opacity="0.3"></stop><stop offset="1" stop-color="#000000" stop-opacity="0"></stop></linearGradient><filter id="dropshadow-base"><feColorMatrix type="matrix" values="0 0 0 0 0  0 0 0 0 0  0 0 0 0 0  0 0 0 .8 0"></feColorMatrix> <feOffset dx="0" dy="1"></feOffset> <feGaussianBlur stdDeviation="1"></feGaussianBlur> <feComposite in="SourceGraphic"></feComposite></filter><filter id="dropshadow-banner" x="-10%" y="-10%" width="120%" height="130%"><feColorMatrix type="matrix" values="0 0 0 0 0  0 0 0 0 0  0 0 0 0 0  0 0 0 .4 0"></feColorMatrix> <feOffset dx="0" dy="1"></feOffset> <feGaussianBlur stdDeviation="0.5"></feGaussianBlur> <feComposite in="SourceGraphic"></feComposite></filter></defs><g fill="none" fill-rule="nonzero" stroke="none" stroke-width="none" stroke-linecap="butt" stroke-linejoin="miter" stroke-miterlimit="10" stroke-dasharray="" stroke-dashoffset="0" font-family="none" font-weight="none" font-size="none" text-anchor="none" style="mix-blend-mode: normal"><path d="M7,43c-1.10457,0 -2,-0.89543 -2,-2v-34c0,-1.10457 0.89543,-2 2,-2h34c1.10457,0 2,0.89543 2,2v34c0,1.10457 -0.89543,2 -2,2z" id="base 1 5 1 1" fill="#7fb546" stroke-width="1"></path><path d="M26.46209,17.0695l27.74988,27.74988l-13.18477,13.18477h-4.46841l-23.28147,-23.28147v-4.46841zM54.87329,36.90732c-0.46471,-0.46471 -1.22137,-0.46471 -1.68608,0l-2.18059,2.18059l-23.28147,-23.28147l2.18059,-2.18059c0.46471,-0.46471 1.22137,-0.46471 1.68608,0z" fill="url(#color-1)" stroke-width="1"></path><path d="M13.27732,30.25428v4.46841h4.46841l13.18477,-13.18477l-4.46841,-4.46841zM34.37415,18.09426c0.46471,-0.46471 0.46471,-1.22136 0,-1.68608l-2.78233,-2.78233c-0.46471,-0.46471 -1.22136,-0.46471 -1.68608,0l-2.18058,2.18058l4.46841,4.46841z" fill="none" stroke-width="0"></path><path d="M26.46209,17.0695l4.46841,4.46841l-13.18477,13.18477h-4.46841v-4.46841zM32.19357,20.27484l-4.46841,-4.46841l2.18058,-2.18058c0.46471,-0.46471 1.22136,-0.46471 1.68608,0l2.78233,2.78233c0.46471,0.46471 0.46471,1.22136 0,1.68608z" fill="#e1e1e1" stroke-width="0"></path><path d="M2,24c0,-12.15026 9.84974,-22 22,-22c12.15026,0 22,9.84974 22,22c0,12.15026 -9.84974,22 -22,22c-12.15026,0 -22,-9.84974 -22,-22z" id="base 1 1 1" fill="none" stroke-width="1"></path><g fill="#000000" stroke-width="1" font-family="Roboto, sans-serif" font-weight="400" font-size="14" text-anchor="start"></g><rect x="2" y="2" width="44" height="22" fill="none" stroke-width="1"></rect><path d="M2,24v-22h44v22z" fill="none" stroke-width="1"></path><path d="M2,24v-22h44v22z" fill="none" stroke-width="1"></path><path d="M2,24v-22h44v22z" fill="none" stroke-width="1"></path><path d="M5,7c0,-1.10457 0.89543,-2 2,-2h34c1.10457,0 2,0.89543 2,2v17h-38z" id="base 1 2 1" fill-opacity="0.1" fill="#000000" stroke-width="1"></path><path d="M2,24v-22h44v22z" fill="none" stroke-width="1"></path></g></svg>